<svg id="Bus" data-name="Слой 1" xmlns="http://www.w3.org/2000/svg" viewBox="0 0 101 101"><title>log_Монтажная область 3</title><path d="M94.88,46.45,86.93,27.91A6.45,6.45,0,0,0,81,24H11.39A4.39,4.39,0,0,0,7,28.39V71.5A1.5,1.5,0,0,0,8.5,73H19.2a10,10,0,0,0,19.6,0H64.2a10,10,0,0,0,19.6,0h9.7A1.5,1.5,0,0,0,95,71.5V47A1.51,1.51,0,0,0,94.88,46.45ZM84.17,29.09,91,45H70V27H81A3.45,3.45,0,0,1,84.17,29.09ZM11.39,27H67V45H10V28.39A1.39,1.39,0,0,1,11.39,27ZM29,78a7,7,0,1,1,7-7A7,7,0,0,1,29,78Zm45,0a7,7,0,1,1,7-7A7,7,0,0,1,74,78Zm9.95-8a10,10,0,0,0-19.9,0H38.95a10,10,0,0,0-19.9,0H10V48H92V70Z"/></svg>