<?xml version="1.0" encoding="iso-8859-1"?>
<!-- Generator: Adobe Illustrator 20.0.0, SVG Export Plug-In . SVG Version: 6.00 Build 0)  -->
<svg version="1.1" id="Spets" xmlns="http://www.w3.org/2000/svg" xmlns:xlink="http://www.w3.org/1999/xlink" x="0px" y="0px"
	 viewBox="0 0 64 64" style="enable-background:new 0 0 64 64;" xml:space="preserve">
<g id="Guide">
	<g>
	</g>
	<g>
	</g>
	<g>
	</g>
	<g>
	</g>
	<g>
	</g>
	<g>
	</g>
	<g>
	</g>
	<g>
	</g>
	<g>
	</g>
	<g>
	</g>
	<g>
	</g>
	<g>
	</g>
	<g>
	</g>
	<g>
	</g>
	<g>
	</g>
	<g>
	</g>
	<g>
	</g>
	<g>
	</g>
	<g>
	</g>
	<g>
	</g>
	<g>
	</g>
	<g>
	</g>
	<g>
	</g>
	<g>
	</g>
	<g>
	</g>
	<g>
	</g>
	<g>
	</g>
	<g>
	</g>
	<g>
	</g>
	<g>
	</g>
	<g>
	</g>
	<g>
	</g>
	<g>
	</g>
	<g>
	</g>
	<g>
	</g>
	<g>
	</g>
</g>
<path d="M59,36h-3V24c0-1.13-0.391-2.162-1.026-3H63c0.347,0,0.668-0.18,0.851-0.474c0.182-0.295,0.199-0.663,0.044-0.973l-7-14
	C56.725,5.214,56.379,5,56,5H43V3c0-1.654-1.346-3-3-3h-9c-1.654,0-3,1.346-3,3v2h-3V4c0-1.654-1.346-3-3-3h-4c-1.654,0-3,1.346-3,3
	v1h-3V2h-2v3H6V2H4v3.101C1.721,5.566,0,7.586,0,10v35v8c0,2.757,2.243,5,5,5h1.08c0.488,3.387,3.401,6,6.92,6s6.432-2.613,6.92-6
	H23h10h3h1h3.08c0.488,3.387,3.401,6,6.92,6s6.432-2.613,6.92-6H59c2.757,0,5-2.243,5-5v-6v-6C64,38.243,61.757,36,59,36z M30,3
	c0-0.551,0.449-1,1-1h9c0.551,0,1,0.449,1,1v2H30V3z M17,4c0-0.551,0.449-1,1-1h4c0.551,0,1,0.449,1,1v1h-6V4z M13,62
	c-2.757,0-5-2.243-5-5s2.243-5,5-5s5,2.243,5,5S15.757,62,13,62z M24,56V28h8v28H24z M34,56V27c0-0.552-0.448-1-1-1H23
	c-0.552,0-1,0.448-1,1v29h-2.08c-0.488-3.387-3.401-6-6.92-6s-6.432,2.613-6.92,6H5c-1.654,0-3-1.346-3-3v-8V17h2v-2H2v-5
	c0-1.654,1.346-3,3-3h24h13h13.382l6,12H51H37c-0.552,0-1,0.448-1,1v25v11H34z M47,62c-2.757,0-5-2.243-5-5s2.243-5,5-5s5,2.243,5,5
	S49.757,62,47,62z M59,56h-5.08c-0.488-3.387-3.401-6-6.92-6s-6.432,2.613-6.92,6H38V45V21h13c1.654,0,3,1.346,3,3v13
	c0,0.552,0.448,1,1,1h4c1.654,0,3,1.346,3,3v5h-2c-2.206,0-4,1.794-4,4s1.794,4,4,4h1.816C61.402,55.161,60.302,56,59,56z M62,52h-2
	c-1.103,0-2-0.897-2-2s0.897-2,2-2h2V52z"/>
<path d="M51,23H41c-0.552,0-1,0.448-1,1v9c0,0.552,0.448,1,1,1h10c0.552,0,1-0.448,1-1v-9C52,23.448,51.552,23,51,23z M50,32h-8v-7
	h8V32z"/>
<rect x="40" y="36" width="4" height="2"/>
<path d="M43,17h13c0.347,0,0.668-0.18,0.851-0.474c0.182-0.295,0.199-0.663,0.044-0.973l-3-6C53.725,9.214,53.379,9,53,9H43
	c-0.552,0-1,0.448-1,1v6C42,16.552,42.448,17,43,17z M44,11h8.382l2,4H44V11z"/>
<path d="M19,26h-5c-0.552,0-1,0.448-1,1v6c0,0.552,0.448,1,1,1h5c0.552,0,1-0.448,1-1v-6C20,26.448,19.552,26,19,26z M18,32h-3v-4h3
	V32z"/>
<path d="M10,26H5c-0.552,0-1,0.448-1,1v12c0,0.552,0.448,1,1,1h5c0.552,0,1-0.448,1-1V27C11,26.448,10.552,26,10,26z M9,38H6V28h3
	V38z"/>
<rect x="28" y="39" width="2" height="2"/>
<rect x="32" y="13" width="2" height="2"/>
<rect x="30" y="15" width="2" height="2"/>
<rect x="34" y="15" width="2" height="2"/>
<rect x="36" y="13" width="2" height="2"/>
<rect x="38" y="15" width="2" height="2"/>
<rect x="28" y="13" width="2" height="2"/>
<rect x="26" y="15" width="2" height="2"/>
<rect x="24" y="13" width="2" height="2"/>
<rect x="22" y="15" width="2" height="2"/>
<rect x="20" y="13" width="2" height="2"/>
<rect x="18" y="15" width="2" height="2"/>
<rect x="16" y="13" width="2" height="2"/>
<rect x="14" y="15" width="2" height="2"/>
<rect x="12" y="13" width="2" height="2"/>
<rect x="10" y="15" width="2" height="2"/>
<rect x="8" y="13" width="2" height="2"/>
<rect x="6" y="15" width="2" height="2"/>
<rect x="4" y="13" width="2" height="2"/>
</svg>
